<svg width="65" height="69" viewBox="0 0 65 69" fill="none" xmlns="http://www.w3.org/2000/svg">
<path d="M42.0934 3.71609C45.2936 1.98714 48.4177 1.09768 52.0537 0.987065C63.1203 0.537152 66.5388 11.078 62.7334 20.2469C62.1303 21.7 61.3274 23.0388 60.4875 24.3631C61.9642 28.3371 59.7868 30.7468 55.7845 29.391C53.3327 30.4321 52.2537 31.0391 49.3218 30.8731C48.3961 34.4799 43.8792 32.5649 41.589 31.7411C39.7019 33.118 37.9723 34.6867 36.1573 36.1514C30.2498 40.9187 24.5146 45.8805 18.806 50.8825L13.6621 55.3709C10.9807 57.7475 8.72739 60.8414 5.07921 57.6266C1.79708 59.2576 1.98529 62.6772 4.94038 64.5159C7.30844 65.9428 12.0394 65.3378 12.9366 66.5264C13.2928 66.9983 13.1586 67.6862 12.6686 68.0094C11.9993 68.4508 11.3075 67.8867 10.6224 67.7912C9.45065 67.6276 8.27525 67.7028 7.09414 67.469C0.82156 66.2274 -2.03196 59.7568 3.71722 56.0011C2.93519 52.9895 4.18718 52.1678 5.99658 50.1329L29.3742 23.9914C30.3622 22.8816 31.3668 21.7861 32.3294 20.6542C31.8683 19.0715 30.8151 14.4729 33.2092 13.8174C34.01 10.9966 34.6242 9.90571 35.9737 7.49378C35.4931 5.65152 36.6813 3.63352 38.4676 3.04196C39.8261 2.59208 40.8935 3.11433 42.0934 3.71609ZM51.4463 3.03068C48.6462 3.23096 46.2934 3.78836 43.805 5.12042C48.2396 8.08879 54.3577 15.3712 57.3641 19.5924C58.0091 20.5227 58.7554 21.4606 59.2615 22.4738C64.2748 14.8088 63.255 1.9462 51.4463 3.03068ZM39.4472 4.93661C37.2464 5.4141 38.1929 6.86326 37.7931 8.05662C37.0888 10.1593 35.8386 11.4814 35.3572 13.9879C42.0395 16.0655 47.3073 22.2622 49.2157 28.9062C51.0781 28.909 52.7001 28.6793 54.3753 27.8137C56.867 26.5772 57.216 28.2224 58.3334 27.6743C59.5576 27.074 58.5988 25.4058 58.1516 24.63C54.3945 18.114 49.0646 12.0982 43.2869 7.29953C42.3259 6.50149 40.7793 4.89957 39.4472 4.93661ZM33.7815 15.8459C33.6605 16.5795 33.7621 17.3703 33.8788 18.0984C34.7596 23.594 38.2025 28.2153 43.4615 30.2274C44.456 30.6078 46.0806 31.2627 47.1345 30.7825C47.7834 29.8644 46.6873 27.6151 46.2922 26.7731C44.4571 22.8634 38.592 15.8795 33.7815 15.8459ZM33.0898 22.8497L8.64203 50.2582C7.87644 51.1221 5.39934 53.301 5.49863 54.4982C5.59833 55.7005 7.13369 57.0665 8.36284 56.9117C9.13887 56.8139 9.9486 55.9141 10.5277 55.4137C17.9384 48.976 25.223 42.421 32.8184 36.1994L36.9309 32.8129C37.8175 32.0747 38.6825 31.2857 39.6235 30.6175C37.2982 29.2914 35.365 26.9961 34.0426 24.7012C33.8415 24.3522 33.2512 23.015 33.0898 22.8497Z" fill="black"/>
<path d="M27.0494 39.1859C25.3803 39.4102 23.827 38.5153 23.5573 36.7762C23.2695 34.9201 24.7842 33.8642 25.912 32.6881C27.1968 31.3481 28.4733 29.2626 30.4527 28.9597C32.7873 28.8266 34.8054 31.3999 33.5906 33.5444C33.0304 34.533 28.348 38.8277 27.0494 39.1859ZM30.5384 31.0428C29.438 31.6126 28.7074 32.7619 27.7666 33.5524C28.2972 34.0523 28.7745 34.551 29.2226 35.1269C29.7377 34.707 31.6832 32.7616 31.9926 32.2503C31.7531 31.5569 31.341 30.9548 30.5384 31.0428ZM26.1774 35.3015C25.0687 35.9162 25.5112 37.5078 26.7581 37.153C27.9286 36.5541 27.3731 35.2724 26.1774 35.3015Z" fill="black"/>
<path d="M35.8414 46.3114C36.244 44.324 36.2206 37.5894 37.9761 37.0495C39.2783 36.9679 41.8576 39.022 42.5401 39.858C43.0099 40.4338 42.7969 41.4175 42.0071 41.5791C41.15 41.7547 39.7902 40.1478 38.8851 39.5792C38.3018 42.4274 38.1084 45.3425 37.7534 48.2237C37.5554 49.8313 37.6463 52.2373 36.009 53.1461C34.0126 54.2543 32.2627 53.3865 31.2246 51.5301C30.1433 53.3074 28.9972 56.6744 28.2188 58.6591C26.9236 61.3947 22.9229 60.9377 22.3305 58.2756C21.6954 55.4213 25.2097 54.0414 27.3313 55.4655C27.8266 54.0483 30.3441 47.7678 31.2001 46.5218C32.0904 45.2257 34.6808 45.812 35.8414 46.3114ZM32.2438 49.0258C33.2309 48.1222 33.4946 48.4945 34.1946 48.1671L34.2102 48.1109L34.0051 47.967C33.644 47.75 33.3342 47.7571 32.9326 47.8054C32.6774 48.1967 32.4324 48.5973 32.2438 49.0258ZM34.1519 50.2369C33.3605 50.3756 33.0304 50.885 33.7383 51.3923C34.0692 51.4011 34.3938 51.4142 34.7216 51.3583C36.055 50.9182 35.2192 50.1353 34.1519 50.2369ZM25.0123 57.0653C23.6204 57.4261 24.4169 58.3972 25.7563 58.2919C27.1844 57.9129 26.0721 57.0145 25.0123 57.0653Z" fill="black"/>
</svg>
