<svg width="61" height="76" viewBox="0 0 61 76" fill="none" xmlns="http://www.w3.org/2000/svg">
<path d="M26.2511 5.15714C26.771 2.85472 27.3745 0.459125 30.0862 0.0223519C33.1891 -0.283738 34.2966 2.61196 34.7836 5.14809C37.5406 5.16182 41.0862 5.83486 42.464 8.58871L53.435 8.57369C56.6233 8.5556 59.674 10.1595 60.4314 13.4156C60.7013 14.5765 60.6423 15.8377 60.6418 17.0242L60.7661 43.144C60.7667 44.2725 60.8258 45.4524 60.5939 46.5612C59.6057 51.287 54.202 51.7357 50.3639 51.7978L31.0328 51.8701C23.4178 51.7231 15.8302 51.9149 8.19714 51.7504C0.663043 51.5883 0.0764146 48.2899 0.084975 41.6033L0.0864291 22.5684C0.086106 18.9946 -0.639265 13.1606 2.11847 10.5578C4.71759 8.10433 8.33992 8.59211 11.6198 8.59098C13.8652 8.59017 16.1226 8.54284 18.3664 8.60971C20.475 5.42816 23.0024 5.39473 26.2511 5.15714ZM30.2361 2.13468C27.9695 3.09409 28.9686 6.37481 27.2826 7.17415C25.7963 7.87901 23.656 6.77343 21.1012 8.6089C24.2595 8.58888 27.4346 8.52459 30.5912 8.6089C33.6374 8.54381 36.6922 8.58872 39.7394 8.5892C39.1203 8.19849 38.4923 7.77209 37.7781 7.57746C36.6676 7.27462 34.0603 7.58295 33.3367 6.85968C32.2103 5.73359 32.6696 1.87302 30.2361 2.13468ZM6.85106 10.7303C1.24999 11.2867 2.21086 16.458 2.21053 20.6427L2.21473 40.2658C2.21554 42.6461 1.62003 46.9103 3.67645 48.5482C5.57912 50.0637 12.0092 49.7244 14.5449 49.7245L42.614 49.7247C46.3717 49.7257 50.1507 49.8121 53.8995 49.5183C58.1018 48.8824 58.6269 46.8431 58.6285 43.2629L58.6282 19.8891C58.6315 16.2691 59.4352 11.1502 54.3199 10.7291C53.3542 10.6497 52.3481 10.7075 51.3779 10.7083L9.19063 10.7099C8.42794 10.7098 7.60825 10.6526 6.85106 10.7303Z" fill="black"/>
<path d="M38.1751 24.8252C32.9208 25.538 32.0305 18.3077 36.8976 17.3833C41.7921 16.9595 43.006 23.7353 38.1751 24.8252ZM37.3337 19.5018C35.0376 20.0955 35.3584 22.8699 37.6062 22.7715C39.893 22.3383 39.4638 19.317 37.3337 19.5018Z" fill="black"/>
<path d="M42.6673 43.9836C39.6321 44.2264 36.5444 44.5173 33.5042 44.5231C28.5634 44.5326 22.8345 43.9092 17.7907 43.6656C15.0822 43.5348 7.46028 44.8075 7.04874 41.1322C6.71617 38.1626 10.432 36.4715 12.4689 35.1482C16.0018 32.8531 16.6801 31.0158 19.1777 27.8354C20.2571 26.4609 21.5229 25.3283 23.317 25.1135C28.6735 24.8448 26.6607 33.8805 30.2339 33.3974C32.0807 33.1477 33.4061 31.2657 34.6096 30.0099C41.2114 23.1217 47.6629 32.1857 51.2241 37.3193C51.9618 38.3826 53.2836 39.7981 53.407 41.1481C53.7053 44.412 47.387 43.7995 45.4812 43.8326C44.5432 43.8489 43.6035 43.9211 42.6673 43.9836ZM23.5026 27.2833C21.3888 27.5712 19.9946 30.3877 18.8483 31.9684C17.5449 33.7663 16.0318 35.3088 14.1994 36.5683C12.7062 37.5945 9.07011 38.9887 9.26151 41.0731C9.70471 41.7269 15.9959 41.4661 16.9691 41.5045C19.9087 41.6207 22.8693 41.6964 25.8031 41.9059C28.9484 42.1304 32.0733 42.5589 35.2346 42.3903C37.58 42.2653 39.9151 41.9574 42.2632 41.8592C44.92 41.7563 48.762 41.8022 51.2479 41.3784C50.6863 40.3035 49.9587 39.3044 49.2788 38.3018C36.4468 19.3761 36.4812 37.6848 28.9053 35.4049C25.182 34.2844 25.9809 27.2804 23.5026 27.2833Z" fill="black"/>
<path d="M22.8152 55.1342C20.8266 55.0688 18.8267 55.111 16.837 55.1118C15.9235 55.1121 12.7555 55.5164 12.6445 54.0946C12.5738 53.186 13.5485 52.9581 14.2545 52.9302C15.4342 53.0268 16.6385 52.9801 17.8226 52.9796L41.7031 52.9786C43.4224 52.9785 48.1688 52.2769 48.8764 53.8473C48.3443 55.6584 45.5734 55.1144 43.9902 55.1139C41.9811 55.1136 39.9828 55.121 37.9753 55.0285C40.1773 59.7255 42.1542 64.5309 44.2962 69.2564C44.8604 70.5011 46.0933 72.0634 45.5257 73.4848C45.0324 74.7199 43.422 75.5141 42.1645 74.9804C40.5948 74.314 39.8717 71.1899 39.2603 69.7628C37.3287 65.2542 35.6073 60.657 33.6738 56.1534C33.5313 55.8297 33.3984 55.5086 33.2847 55.1737L31.6983 55.1218L31.7648 63.4614C31.7648 64.6036 31.8596 65.84 31.7327 66.9728C31.5927 68.2218 30.2939 68.2105 29.6935 67.3308C29.5336 65.9452 29.638 64.4471 29.6388 63.0487L29.6386 55.1252C28.9958 55.1297 27.4478 54.9982 27.1907 55.5605C26.5383 56.9872 26.0379 58.5203 25.4602 59.981L21.2876 70.5182C20.7402 71.9428 20.2427 74.2924 18.672 74.8968C17.4411 75.3703 15.9669 74.6722 15.5302 73.4305C15.0527 72.0723 15.8724 70.7522 16.3878 69.5384C18.4144 64.7655 20.5685 59.7793 22.8152 55.1342ZM35.5937 55.0671C35.4728 55.7063 37.4643 60.0464 37.8065 60.8855L42.2397 71.4786C42.4021 71.8725 42.7355 73.3216 43.3653 72.9452C43.7923 72.3406 42.7068 70.6471 42.4383 70.0561L40.0915 64.9591C39.5572 63.7704 36.2345 55.4453 35.5937 55.0671ZM25.0984 55.0934C24.604 55.4747 24.0703 57.2611 23.7909 57.8875L19.0776 68.652C18.7149 69.4898 17.021 72.2474 17.6656 72.8927C18.5518 72.935 19.7071 69.0324 20.0969 68.0518L24.1136 57.8795C24.2753 57.4707 25.5269 55.2835 25.0984 55.0934Z" fill="black"/>
</svg>
