<svg width="65" height="67" viewBox="0 0 65 67" fill="none" xmlns="http://www.w3.org/2000/svg">
<path d="M13.6514 41.4884C13.0542 40.8866 12.5211 40.2153 12.0036 39.5449C0.246247 24.31 9.7302 1.74394 29.6026 0.488921C36.3101 -0.190534 43.9271 2.90719 48.7059 7.48253C49.5714 8.3114 52.6098 11.712 52.596 12.7319C52.5884 13.301 51.9246 13.8044 51.3801 13.7517C50.5308 13.6693 49.9408 12.4927 49.4871 11.8885C41.8514 1.72004 26.4877 -0.555125 16.7487 7.94974C7.11767 16.3607 6.78225 30.156 15.0475 39.6131C16.768 36.8481 18.5903 34.2517 20.2871 31.4357C21.3477 29.6753 22.3877 28.6563 21.0878 26.6434C17.4106 20.9491 19.6967 17.682 22.2871 12.0715C22.7391 11.0925 23.6798 7.90972 24.8983 7.70698C27.1704 7.32904 25.6509 10.2886 25.3144 11.0436C23.5654 14.9655 19.8835 19.9493 22.3152 24.2386C22.9886 25.426 23.76 26.3901 23.9328 27.7968C24.2508 30.3856 22.2858 32.7218 21.0007 34.7718C19.0709 37.8505 16.9994 40.9435 14.7717 43.8139C11.3076 48.2771 7.52595 52.4886 4.05318 56.9427C1.98262 59.5983 3.83328 62.5568 6.44889 62.1638C8.71955 61.8226 10.8319 57.4686 11.8702 55.7121C14.6285 51.046 17.2299 46.2285 19.5283 41.3179C20.9777 38.2212 22.1877 35.2128 23.7554 32.1407C24.2272 31.2164 24.67 30.1933 25.2907 29.3603C26.5899 27.6168 29.5638 29.8859 33.334 24.423C32.3386 24.9678 31.135 24.9223 30.2282 24.1855C28.2702 22.5946 30.4267 19.7442 31.2261 18.1172L32.8845 14.6732C33.3877 13.6254 34.2325 10.6947 35.8483 12.3254C36.4852 12.9682 35.6884 14.0695 35.3996 14.6941C34.3925 16.873 33.0949 19.1604 32.1831 21.289C31.6744 22.4766 32.0277 22.8874 33.0515 21.9989C34.9245 20.3732 35.7105 17.846 36.5445 15.5984C36.8833 14.6855 37.2922 12.7228 38.6869 13.3177C39.0952 13.4918 39.2957 13.7653 39.4544 14.1639C39.3196 14.6947 39.0923 15.2056 38.9023 15.719L37.9268 18.3917C35.8945 24.0943 34.4227 30.4212 27.0071 30.9169C25.8568 32.8172 24.2584 36.0459 23.4606 38.1649C25.3998 39.5806 27.6222 40.3559 29.9976 40.6078C34.0679 41.1087 38.5784 39.6851 41.5259 36.8335C38.3355 30.6932 39.027 25.2986 41.074 18.7667C42.2342 15.0646 41.6825 15.3446 45.655 15.4817C46.3559 15.5059 47.0614 15.4921 47.7628 15.4924L57.2895 15.4928C58.0369 15.4925 61.2503 15.2679 61.7316 15.6256C62.5206 16.2119 63.7737 20.3965 64.0464 21.4836C66.3039 30.48 63.4138 41.7319 53.0496 43.2565C52.9213 48.7805 52.9772 54.5409 53.0414 60.0693C55.3423 60.6759 59.1185 62.3551 59.8381 64.7819C58.9609 67.5441 48.9336 66.7148 46.7712 66.3384C44.4603 65.9362 42.7814 65.3587 44.9552 63.1526C46.5355 61.5486 48.6453 60.5952 50.7857 59.9942C50.5695 54.8334 50.5936 48.4889 50.7858 43.325C47.4144 42.8289 45.0694 41.2937 42.8675 38.7501C37.1523 43.8124 28.9186 44.3938 22.5536 40.2675C21.8942 41.6653 21.1942 43.0438 20.5429 44.4451C26.7397 48.4883 36.357 48.2351 42.6294 44.5409C43.3133 44.138 44.2449 43.3429 45.0843 43.7355C45.6745 44.0115 45.8702 44.72 45.5499 45.2763C44.7565 46.6541 39.0434 48.6534 37.6099 49.0199C31.5773 50.5621 24.9007 49.6533 19.546 46.4758C17.9337 49.4554 16.4144 52.3711 14.7148 55.3343C13.053 58.2318 10.4736 63.8208 6.87828 64.3935C4.02312 64.8484 1.253 62.749 0.837832 59.8988C0.492959 57.5315 1.62331 56.305 3.01365 54.5705L5.07937 52.0233C7.94507 48.5237 10.9452 45.113 13.6514 41.4884ZM43.8973 17.7101C42.7229 20.7306 41.6403 24.7825 41.6655 28.0425C43.2907 28.0364 43.8549 27.7927 45.2451 26.9989C49.6359 24.4915 50.5464 27.5347 53.3402 27.7703C55.0319 27.9131 56.5905 26.9775 58.3381 26.819C60.3215 26.7695 60.9194 27.5161 62.5864 27.7526C62.7692 24.2634 61.5001 20.9867 60.4198 17.7416L49.7352 17.74C47.7983 17.7402 45.8308 17.8129 43.8973 17.7101ZM48.0084 28.4273C45.6599 28.8327 45.0267 30.4151 41.7519 30.4349C42.9896 37.5307 48.6911 43.6858 56.1159 39.9605C59.6386 37.9763 61.6453 34.3122 62.3439 30.4306C60.9105 30.3937 60.5694 29.1014 58.9506 29.0822C56.7855 29.0564 54.9033 30.4252 52.6918 30.0291C50.8899 29.7064 49.8964 28.2536 48.0084 28.4273ZM51.7403 62.1466C50.4604 62.3773 48.1821 63.2622 47.1984 64.1291C48.5726 64.4938 50.5347 64.4498 51.9772 64.469C53.4656 64.4588 55.0596 64.4802 56.5133 64.1371C55.6069 63.4578 52.8602 61.9568 51.7403 62.1466Z" fill="black"/>
<path d="M32.2833 13.1876C31.6819 14.6207 30.9589 16.0023 30.2961 17.4076C29.533 19.0256 28.7938 21.4647 27.1003 22.3754C25.6651 23.1472 23.8351 22.5382 23.0977 21.1017C22.2991 19.5457 23.1634 18.1412 23.8652 16.7677C24.4112 15.6988 26.9638 9.62672 27.6835 9.27269C30.3521 9.05733 28.9847 11.2757 28.3952 12.5502C27.5449 14.3881 25.5198 18.0561 25.0621 19.737C25.7459 21.8008 27.0773 18.7858 27.3649 18.2013C28.0885 16.7306 28.8149 15.2543 29.4775 13.7549C29.8042 13.0161 30.2843 11.1392 31.0183 10.7423C31.5562 10.4515 32.463 10.6837 32.7147 11.2708C32.9551 11.8317 32.4983 12.6622 32.2833 13.1876Z" fill="black"/>
</svg>
