<svg width="67" height="73" viewBox="0 0 67 73" fill="none" xmlns="http://www.w3.org/2000/svg">
<path d="M41.9166 13.6026C44.0104 10.9718 45.6075 7.25503 44.7669 3.89284C44.4991 2.82182 43.1738 1.2262 44.7162 0.590129C46.4865 0.418043 46.9475 2.95022 47.1602 4.31851C47.7974 8.41698 45.7708 12.1213 43.4476 15.3165C44.9734 16.833 50.8942 22.5301 51.4417 23.6385C55.8376 23.7234 60.5346 22.7875 63.9136 26.1068C65.6198 27.7829 66.5554 30.0189 66.572 32.4044V61.6197C66.5729 62.8338 66.6915 64.1502 66.4755 65.344C65.8336 68.892 63.1534 71.7412 59.5776 72.3885C58.0815 72.6594 56.4286 72.5425 54.9131 72.5422L21.0022 72.5443L13.0766 72.5425C9.56013 72.5435 6.52543 72.864 3.72366 70.3277C-0.0568926 66.9052 0.86525 61.6001 0.86525 56.9536L0.864311 35.7715C0.864154 34.1709 0.730566 32.4443 1.02543 30.8706C2.0516 25.3936 6.42548 23.6495 11.3259 23.6454L14.6758 23.6495C15.2821 23.6531 15.8883 23.6848 16.4944 23.6604C18.2603 21.3315 20.3924 19.427 22.462 17.3753C25.6767 14.1885 29.2971 9.08712 34.1532 9.14985C37.6188 9.19458 39.6661 11.2978 41.9166 13.6026ZM33.7461 11.4038C30.384 11.7691 28.7989 14.2671 26.5529 16.4783L22.8898 20.1239C21.7201 21.2685 20.4841 22.3926 19.4467 23.6623C22.1519 23.6185 24.8607 23.6473 27.5665 23.6473L41.8589 23.6477C44.1028 23.6477 46.349 23.6709 48.5923 23.6343C47.9686 23.1637 47.4183 22.5168 46.871 21.9586L43.8946 19.0134C43.276 18.4005 42.6299 17.7984 42.0516 17.1467C41.0401 18.9901 39.5738 20.6645 37.4894 21.2786C32.4415 22.7656 30.6366 15.9221 34.0966 15.1249C35.0003 14.9167 35.9617 15.925 35.343 16.7328C35.1303 17.0103 34.5262 17.3643 34.5537 17.7296C34.6268 18.6996 35.636 19.3361 36.5444 19.1676C38.1999 18.8609 39.7915 16.8682 40.5422 15.3984C38.7885 13.6572 36.5205 11.0009 33.7461 11.4038ZM16.0322 25.9299L11.9119 25.9283C9.26073 25.9267 7.11173 25.8066 5.07801 27.8264C2.87503 30.0143 3.10811 32.5735 3.11108 35.4391L3.11296 62.7131C3.1164 64.8834 3.3695 66.847 4.98837 68.4526C7.2802 70.7259 10.3834 70.2984 13.3257 70.2978L51.5918 70.2909L55.2906 70.2984C56.7923 70.3006 58.507 70.4262 59.9527 69.9856C64.2132 68.6864 64.3496 65.0805 64.3495 61.5569L64.348 33.4928C64.3354 31.0745 64.1466 29.5408 62.3409 27.751C60.02 25.4506 57.4189 25.9286 54.433 25.9288L25.7 25.9302C22.4875 25.93 19.2405 25.8058 16.0322 25.9299Z" fill="black"/>
<path d="M30.262 41.883C25.1136 40.4091 21.5733 45.2546 20.751 45.3314C18.082 45.5806 20.4241 40.5264 21.0028 39.5994C22.434 37.3068 24.7214 35.5849 27.4799 35.4079C29.8118 35.3185 31.6815 36.4721 33.3674 37.9671C39.2733 32.3773 45.7148 36.8022 47.2488 43.5707C47.4205 44.3287 47.2752 45.2103 46.3745 45.3433C45.1267 45.5274 43.0908 40.9405 35.8181 41.8931C36.6556 42.3532 39.3021 44.2818 38.5844 45.5022C37.5018 47.3432 35.5123 44.5089 34.4758 43.7534C35.3036 46.1112 36.0998 48.5247 36.74 50.9397C39.0907 51.3877 43.0518 52.8012 45.228 53.6767C47.5246 54.6007 47.8067 54.8831 50.2957 55.3506C52.1026 55.6901 57.435 57.1413 58.1304 58.8523C58.3662 59.4328 57.9406 60.1761 57.365 60.3594C56.6976 60.5717 56.0256 59.8742 55.5053 59.5617C51.2299 56.9933 46.4005 57.9583 41.8005 59.103C40.6741 59.3833 37.3971 60.6588 36.3816 60.0538C35.4483 59.4977 35.8139 58.4629 36.6303 58.0678C37.4395 57.6759 39.6885 57.2556 40.6855 56.9998C42.0311 56.6549 43.4074 56.2297 44.7781 56.0106C36.8723 52.6099 29.6916 51.2411 21.6425 54.7254C19.6546 55.5859 13.2356 59.4229 11.3042 59.3663C10.2232 59.3345 9.75427 58.0426 10.5937 57.3721C11.25 56.8481 14.0772 55.9942 15.1465 55.5099C16.537 54.8801 17.8106 54.0166 19.187 53.3483C23.7366 51.1397 29.0725 49.7744 34.1456 50.4339C33.9217 49.699 33.7512 48.9429 33.5462 48.2017L32.3152 43.9029C30.5304 44.5336 30.1723 45.3367 28.8907 46.2459C27.8414 46.9902 27.1148 45.8894 27.3502 44.9034C27.6843 43.5032 29.1263 42.5908 30.262 41.883ZM22.8931 40.93C23.4802 40.7163 24.0247 40.3337 24.6152 40.1011C27.3818 39.0119 29.2181 39.352 31.9201 39.9256C31.6177 39.6426 31.3124 39.3637 31.0031 39.0882C28.1435 36.6464 24.5885 37.7505 22.8931 40.93ZM38.6393 37.7533C36.9672 37.8986 35.9329 38.6624 34.8403 39.8815C36.7837 39.3937 38.8111 39.2495 40.7764 39.7072C41.807 39.9833 42.7596 40.357 43.7204 40.818C42.4954 39.0738 40.8886 37.5803 38.6393 37.7533Z" fill="black"/>
<path d="M38.3066 67.164C34.6659 67.1951 32.6425 64.685 29.7086 64.3774C26.8789 64.0805 24.6985 66.6876 21.8664 66.7285C18.7525 66.7732 17.0193 64.1493 13.9192 64.5773C11.7902 64.8714 10.3478 66.8395 8.38479 67.1826C7.51724 67.3343 6.20998 66.4877 6.95051 65.5584C7.39195 65.0043 8.78478 64.5938 9.45022 64.1649C16.932 59.3421 17.9231 64.7523 21.9149 64.4689C24.0412 64.3181 26.0632 62.3067 29.0309 62.0485C32.3001 61.7401 34.6562 64.6711 37.7981 64.8951C41.1362 65.1332 42.8648 62.7117 45.9869 62.3818C50.0908 61.9482 51.8733 64.9029 55.1641 64.778C57.4542 64.6908 58.5515 62.8929 59.6406 62.7618C60.2218 62.6918 60.7481 63.0372 60.7889 63.6429C60.8932 65.1844 58.5468 66.2473 57.377 66.6166C52.1386 68.2713 50.082 64.2865 46.3103 64.6448C43.7578 64.8875 41.981 67.0096 38.3066 67.164Z" fill="black"/>
</svg>
