<svg width="63" height="63" viewBox="0 0 63 63" fill="none" xmlns="http://www.w3.org/2000/svg">
<path d="M31.979 62.5088C23.8859 62.594 15.9791 59.1755 10.1519 53.5957C-9.94837 34.3489 4.60764 1.19524 31.6089 0.645512C47.5718 0.2924 62.3294 14.2332 62.7627 30.2157C63.2453 48.0108 49.7169 62.0618 31.979 62.5088ZM30.8728 3.05771C28.7147 3.18125 23.315 3.69886 21.8926 5.32924C21.4344 5.85456 21.4436 6.81721 21.3768 7.48751C26.0381 8.13508 28.7723 11.5307 32.6104 11.1922C35.9691 10.9361 38.0071 8.21573 42.2688 7.60701C41.8639 5.04368 42.216 4.96578 39.6653 4.20805C37.0413 3.42851 33.609 2.78009 30.8728 3.05771ZM44.5869 6.15681C44.6331 6.73638 44.6961 7.31961 44.7198 7.90028C50.8364 10.0644 56.3368 15.8887 55.0355 22.7585C54.6139 24.9846 53.9339 24.5995 52.9315 26.3169C51.2085 29.2685 51.8596 34.0126 53.0796 37.0336C53.8851 39.0289 54.6144 40.7521 56.9875 40.5928C57.6899 40.5002 58.3461 40.3589 58.9898 40.0537C63.0175 28.2118 58.1126 15.668 48.1241 8.45089C46.9825 7.62608 45.7558 6.9391 44.5869 6.15681ZM18.8661 6.28346C13.5072 9.26801 9.45497 13.1934 6.50764 18.5734C6.09725 19.3225 4.43699 22.4526 4.53854 23.1637L4.59261 23.1584C5.62436 22.4454 6.75197 21.7397 7.95125 21.3521C8.48005 14.7428 12.5852 9.832 18.9471 7.72065C18.9585 7.49117 19.1368 6.30601 18.8661 6.28346ZM20.2281 9.97441C15.3425 10.6062 9.89194 16.5027 10.5219 21.7192C10.6035 22.3957 12.2386 24.536 12.6697 25.4034C13.2324 26.5354 13.5937 27.736 13.9112 28.9548C15.1922 29.8051 18.3523 30.6481 19.8517 30.7141L20.1776 30.2997C22.5237 27.5527 26.823 23.433 30.2056 22.108C30.23 19.3218 30.1631 16.5273 30.2397 13.7427C26.7103 12.7964 24.1442 9.69599 20.2281 9.97441ZM41.7215 10.1993C38.7324 10.731 36.4471 13.2616 32.7433 13.7499C32.576 16.4384 32.6264 19.3524 32.6988 22.0506C36.0158 23.7638 38.9434 25.8809 41.5362 28.5784C41.9184 28.9757 43.4875 30.7788 43.8704 30.7907C45.5745 30.5559 48.0339 29.7278 49.3917 28.6421C49.639 28.0411 49.7242 27.3886 49.9546 26.7828C50.2728 25.9457 51.2985 23.7739 51.7534 22.8873C52.0379 22.3332 52.7234 21.9445 52.8279 21.2951C53.6104 16.427 46.696 9.84263 41.7215 10.1993ZM8.12263 24.0505C6.94589 24.4123 4.63073 25.9157 3.64975 26.7363C2.93308 30.4764 3.16018 34.1492 3.94687 37.8518C4.37192 39.8519 4.30685 40.9815 6.65152 41.0004C10.7417 40.8027 11.5861 33.8104 11.4235 30.8096C11.3361 29.1946 10.4563 23.8514 8.12263 24.0505ZM31.1896 24.4567C29.1931 25.2463 22.8675 30.0343 21.899 32.2068C21.274 33.6086 23.527 39.902 24.1763 41.4555C25.8865 45.5475 28.3612 45.5891 32.3205 45.5829C35.189 45.5589 37.4891 45.0823 38.84 42.3982C39.8831 40.3257 41.6295 34.7899 41.6935 32.5131C40.5 30.5663 33.4928 24.1383 31.1896 24.4567ZM13.9484 31.637C13.7332 37.0267 12.292 43.6217 5.72828 43.4045C8.03519 47.6521 12.0293 54.6208 17.649 54.1502C22.8961 53.7702 22.8663 50.3474 25.9315 47.1911C25.177 46.7356 24.4019 46.3054 23.7959 45.6529C21.6531 43.3445 19.7241 36.6855 19.2417 33.2158C17.5673 32.8846 15.5262 32.2915 13.9484 31.637ZM49.3461 31.7924C47.6022 32.2662 45.9599 32.9084 44.1652 33.212C43.4008 37.8452 41.7299 45.0481 37.3194 47.1519C38.9958 48.8644 41.2096 53.0563 42.6017 53.8147C43.5372 54.3245 44.9454 54.1533 45.986 54.1069C46.9996 54.0305 48.1662 54.1199 49.1434 53.8664C52.0588 53.11 56.7142 45.6361 57.9311 43.023C52.8332 44.1992 50.7433 39.0999 49.7966 34.9703C49.6876 34.4947 49.4628 31.9399 49.3461 31.7924ZM31.7495 48.1288C29.7615 48.2163 28.2728 48.2685 26.8404 49.8184C24.1295 52.752 23.6705 56.3819 18.5305 56.5975L18.4361 56.6011C22.753 58.7979 26.3961 60.1418 31.325 60.148C36.2317 60.1024 40.222 58.9788 44.5832 56.816C36.9827 56.1354 38.5724 48.6256 33.5476 48.1791C32.9554 48.1264 32.3441 48.1228 31.7495 48.1288Z" fill="black"/>
</svg>
