<svg width="32" height="33" viewBox="0 0 32 33" fill="none" xmlns="http://www.w3.org/2000/svg">
<path d="M22 8.77499V9.77499M22 13.775V14.775M22 18.775V19.775M22 23.775V24.775M10 17.775H17M10 20.775H14M4.5 7.77499C3.67157 7.77499 3 8.44657 3 9.27499V13.3101C4.1956 14.0017 5 15.2944 5 16.775C5 18.2556 4.1956 19.5482 3 20.2399V24.275C3 25.1034 3.67157 25.775 4.5 25.775H27.5C28.3284 25.775 29 25.1034 29 24.275V20.2399C27.8044 19.5482 27 18.2556 27 16.775C27 15.2944 27.8044 14.0017 29 13.3101V9.27499C29 8.44657 28.3284 7.77499 27.5 7.77499H4.5Z" stroke="#F84757" stroke-width="1.5" stroke-linecap="round" stroke-linejoin="round"/>
</svg>
