<svg width="60" height="61" viewBox="0 0 60 61" fill="none" xmlns="http://www.w3.org/2000/svg">
<path d="M28.2821 21.9839C28.968 21.3657 29.5893 20.6836 30.2293 20.0193C32.2918 17.8785 34.4122 15.7854 36.5003 13.6692L47.0372 2.97404C48.2715 1.71817 49.0456 0.599238 50.8871 0.313181C53.3835 0.0970569 54.7212 2.08943 56.2966 3.66708L58.0042 5.37139C58.4698 5.8357 58.9997 6.29877 59.3559 6.8549C60.9817 9.39245 59.2118 11.3021 57.5582 12.9887L43.1341 27.5025C41.5827 29.0698 39.8661 30.5484 38.4378 32.2213C39.8402 33.7181 41.3523 35.1351 42.8022 36.588L51.6181 45.3944C53.2471 47.0069 56.2144 49.6638 57.5195 51.4847C60.1236 55.1181 58.1785 60.2875 53.8049 60.7138C50.1633 61.0688 47.8393 57.6649 45.55 55.4053L32.5942 42.5103C31.8953 41.8111 31.2039 41.0858 30.4369 40.4604C27.166 43.3338 23.8828 46.9577 20.8026 50.0646C17.5379 53.3576 15.4253 55.28 11.3747 57.5653C9.16469 58.7491 -0.039987 64.0742 0.000130734 57.9904C0.0221435 54.6534 3.67693 47.9031 5.55642 45.3296C7.39246 42.8157 9.78148 40.6384 11.98 38.4447L20.2294 30.1853C18.4545 28.4973 16.7812 26.684 15.0909 24.9114C12.6395 22.3408 10.3402 20.2725 8.59039 17.0732C8.1131 16.2003 7.90363 15.2053 7.5526 14.2783C6.65993 11.9213 5.40434 9.73473 4.00869 7.64427C3.64919 7.10577 2.95792 6.37174 2.88113 5.7037C2.78794 4.89274 3.65137 4.24698 4.37899 4.61823C4.77866 4.8221 5.14786 5.13965 5.51761 5.39435C7.45969 6.73138 9.51517 7.86932 11.6949 8.77579C13.0561 9.34189 14.5418 9.81084 15.8116 10.5647C20.1315 13.1293 24.5044 18.4581 28.2821 21.9839ZM51.1822 2.36312C49.9801 2.53884 49.0409 3.83993 48.2688 4.67822C50.6368 6.96667 52.9484 9.3326 55.3606 11.5723L55.7068 11.9025C59.1022 8.45168 58.2759 8.59966 55.3047 5.62035C54.3154 4.62834 52.6646 2.38498 51.1822 2.36312ZM46.7409 6.30602C46.3458 6.69517 45.9231 7.05221 45.5028 7.41349C47.9106 10.0109 50.3761 12.3018 52.9012 14.738C53.3239 14.3056 53.7755 13.8796 54.1652 13.4175C53.2622 12.4652 47.7269 6.78562 46.7409 6.30602ZM44.0187 9.05044C42.8197 10.356 41.5041 11.5721 40.257 12.8331L33.1843 20.0083C32.0435 21.1547 30.8523 22.2669 29.7629 23.4614C30.3997 24.1592 31.9032 25.8113 32.6626 26.3372L32.734 26.315L45.4388 13.5085C45.962 12.9797 46.5203 12.4517 46.9942 11.8785C46.0393 10.9093 45.0967 9.88463 44.0187 9.05044ZM9.2382 10.027C8.90999 10.2299 8.59339 10.4476 8.27611 10.6673C8.77936 11.9435 9.51107 13.8237 10.0933 15.0278C10.4486 14.8061 10.7743 14.5771 11.0685 14.2775C11.8383 13.4468 12.2958 12.5114 12.6671 11.4494C12.0026 11.1662 9.75798 10.0528 9.2382 10.027ZM14.5471 12.2553C13.818 14.3837 12.8492 15.7102 10.9995 16.9876C12.2253 19.6089 20.3684 27.4973 22.8451 29.9943L41.4232 48.5397C42.5459 49.6559 47.0281 53.7723 47.5473 54.8424C48.2309 54.7546 48.9147 54.6807 49.5783 54.4871C51.5774 53.8226 53.0732 52.2205 53.5075 50.1673C51.8119 48.4313 49.9216 46.7068 48.179 44.9874L21.8206 18.4922C19.5844 16.2413 17.3456 13.8188 14.5471 12.2553ZM48.4188 13.5187L36.3858 25.5589C35.6226 26.3196 34.8279 27.0583 34.119 27.871C34.5412 28.3187 36.6623 30.5104 37.0263 30.6925L37.0756 30.6711C37.9899 29.8391 38.8272 28.9229 39.7033 28.0514L48.5645 19.1724C49.522 18.2156 50.4941 17.2584 51.3791 16.2335C50.9084 15.7704 48.9232 13.6938 48.4188 13.5187ZM21.6908 31.7199L13.3877 39.9562C11.0662 42.2717 7.39738 45.5895 5.89091 48.4671C8.45839 50.1445 10.5284 51.9834 12.116 54.6441C14.412 53.6265 16.2835 51.6988 18.0458 49.9627L26.397 41.6065C27.2768 40.7233 28.1256 39.8063 29.0078 38.9273C28.0473 37.9886 27.0821 37.054 26.1375 36.0992C22.2938 39.7516 18.5975 43.5571 14.8495 47.3072C14.3361 47.8208 13.4425 49.1402 12.6319 49.1223C12.0429 49.1093 11.5327 48.5946 11.5832 47.9971C11.653 47.1712 12.7861 46.4121 13.3262 45.8802L22.299 36.9336C23.0866 36.146 23.8571 35.332 24.6574 34.5586C23.8236 33.8105 22.5347 32.2812 21.6908 31.7199ZM4.84425 50.3739C4.14738 51.8309 3.48631 53.3591 2.92581 54.8734C4.67345 55.0891 5.7182 56.1503 6.3074 57.7387C6.82472 57.5686 7.33001 57.3417 7.82178 57.1081C8.68836 56.6758 9.56764 56.2372 10.3705 55.692C9.16414 53.6067 7.06616 51.3691 4.84425 50.3739ZM55.0865 51.7833C54.4921 54.3144 51.9745 55.9914 49.5891 56.6083C50.202 57.2019 50.8278 57.852 51.5993 58.2379C54.5425 59.664 57.4676 56.913 56.3511 53.7982C56.0781 53.0362 55.5945 52.4028 55.0865 51.7833ZM2.3347 56.869C1.82271 58.2817 2.2959 59.293 3.93067 58.6872C4.91817 58.0272 3.39217 56.8398 2.3347 56.869Z" fill="black"/>
</svg>
